<svg viewBox="0 0 20 24" fill="none" xmlns="http://www.w3.org/2000/svg">
<path d="M1.42856 0H13.5664L20 6.72902V22.5C20 23.3287 19.36 24 18.5714 24H1.42856C0.639966 24 0 23.3287 0 22.5V1.49999C0 0.671265 0.64004 0 1.42856 0Z" fill="#518EF8"/>
<path d="M19.9782 6.75062H14.9989C14.2103 6.75062 13.5703 6.07866 13.5703 5.25064V0.015625L19.9782 6.75062Z" fill="#3A5BBC"/>
<path d="M6.84303 10.9475C6.68251 10.8071 6.52191 10.6947 6.30787 10.6384C6.12059 10.5823 5.90656 10.5542 5.63894 10.5542H4.70247C4.51519 10.5542 4.35466 10.6103 4.2744 10.7226C4.16738 10.835 4.14062 10.9755 4.14062 11.2003V14.1501C4.14062 14.2906 4.14062 14.4029 4.16738 14.5153C4.19413 14.6277 4.24764 14.712 4.35466 14.7962C4.43492 14.8523 4.56877 14.8805 4.72922 14.8805H5.66569C5.82622 14.8805 5.98682 14.8805 6.12052 14.8525C6.25429 14.8244 6.38806 14.7681 6.52191 14.712C6.65568 14.6558 6.7627 14.5715 6.86971 14.4592C7.00348 14.3187 7.1105 14.1783 7.19084 13.9815C7.2711 13.8131 7.32461 13.6163 7.37812 13.3916C7.40487 13.1949 7.43163 12.9421 7.43163 12.6892C7.43163 11.9307 7.21759 11.3408 6.84303 10.9475ZM6.12052 13.785C6.06701 13.8131 6.04025 13.8692 5.98675 13.8692C5.93324 13.8973 5.85298 13.8973 5.79947 13.9254C5.74596 13.9254 5.63894 13.9254 5.53192 13.9254H5.10385V11.4813H5.45166C5.66577 11.4813 5.82622 11.5093 5.98682 11.5656C6.12059 11.6217 6.22761 11.706 6.30787 11.8746C6.38821 12.0432 6.44164 12.3241 6.44164 12.6893C6.44164 13.195 6.33463 13.5883 6.12052 13.785Z" fill="white"/>
<path d="M11.5546 11.516C11.4208 11.2069 11.2069 10.926 10.9126 10.7575C10.6182 10.5889 10.2704 10.4766 9.89583 10.4766C9.60153 10.4766 9.33392 10.5327 9.11988 10.6451C8.87909 10.7575 8.69181 10.8979 8.53121 11.0946C8.37069 11.2913 8.23692 11.516 8.15665 11.797C8.07639 12.0779 8.02288 12.3589 8.02288 12.696C8.02288 13.0051 8.07639 13.314 8.1299 13.5668C8.21016 13.8478 8.34393 14.0725 8.47771 14.2692C8.63823 14.4659 8.85227 14.6344 9.09306 14.7468C9.33384 14.8591 9.60146 14.9153 9.89569 14.9153C10.1899 14.9153 10.4576 14.8591 10.6983 14.7468C10.9391 14.6344 11.1264 14.4939 11.2869 14.2692C11.4474 14.0725 11.5813 13.8197 11.6615 13.5668C11.7417 13.314 11.7686 13.005 11.7686 12.6678C11.7687 12.2183 11.6884 11.8251 11.5546 11.516ZM10.645 13.4263C10.5648 13.623 10.4577 13.7635 10.3239 13.8478C10.0831 14.0163 9.78882 14.0163 9.54795 13.9039C9.44094 13.8478 9.36067 13.7635 9.28041 13.6791C9.20015 13.5668 9.14664 13.4263 9.09313 13.2577C9.03962 13.0892 9.01287 12.8925 9.01287 12.6677C9.01287 12.443 9.03962 12.2744 9.09313 12.1058C9.14664 11.9373 9.20015 11.7968 9.28041 11.7126C9.36075 11.6002 9.44101 11.5441 9.54803 11.4878C9.65504 11.4317 9.76206 11.4035 9.89583 11.4035C10.0831 11.4035 10.217 11.4596 10.3507 11.544C10.4845 11.6283 10.5915 11.7687 10.6718 11.9654C10.752 12.1621 10.7789 12.4149 10.7789 12.6677C10.7788 12.9769 10.7254 13.2297 10.645 13.4263Z" fill="white"/>
<path d="M15.6241 13.2231C15.5438 13.1388 15.4368 13.0826 15.3029 13.0826C15.1157 13.0826 15.0354 13.1669 14.9818 13.2511C14.9283 13.3354 14.8748 13.4196 14.848 13.5602C14.7945 13.7569 14.6875 13.8973 14.5805 14.0097C14.4467 14.094 14.313 14.1502 14.1256 14.1502C13.9651 14.1502 13.8313 14.094 13.6975 14.0097C13.5905 13.9254 13.4835 13.785 13.4032 13.6164C13.323 13.4197 13.2962 13.1669 13.2962 12.886C13.2962 12.4365 13.3765 12.0994 13.537 11.8746C13.6975 11.6498 13.8848 11.5375 14.1524 11.5375C14.3129 11.5375 14.4467 11.5656 14.5537 11.6498C14.6608 11.7341 14.7678 11.8746 14.848 12.0431C14.9015 12.1836 14.9818 12.2679 15.0353 12.324C15.1156 12.4083 15.2226 12.4364 15.3297 12.4364C15.4635 12.4364 15.5705 12.3802 15.6507 12.2679C15.731 12.1836 15.7845 12.0431 15.7845 11.9307C15.7845 11.734 15.7043 11.5375 15.5705 11.3127C15.4367 11.116 15.2494 10.9194 15.0086 10.7789C14.7678 10.6384 14.4735 10.5542 14.1791 10.5542C13.9116 10.5542 13.6707 10.6103 13.4567 10.6945C13.2426 10.807 13.0287 10.9475 12.8681 11.1441C12.7076 11.3407 12.5738 11.5656 12.4936 11.8465C12.4133 12.1273 12.3598 12.4364 12.3598 12.7735C12.3598 12.9702 12.3866 13.1668 12.4133 13.3635C12.4401 13.5602 12.4936 13.7287 12.5738 13.8973C12.6541 14.0658 12.7344 14.2064 12.8414 14.3468C12.9484 14.4873 13.0822 14.6277 13.216 14.7121C13.3497 14.7964 13.5103 14.8806 13.6708 14.9087C13.8313 14.9649 14.0186 14.9649 14.2059 14.9649C14.4735 14.9649 14.7143 14.9087 14.9283 14.8245C15.1424 14.7401 15.3029 14.5996 15.4367 14.4312C15.5705 14.2626 15.6507 14.1221 15.731 13.9535C15.7845 13.7851 15.8113 13.6445 15.8113 13.476C15.7579 13.4478 15.7043 13.3073 15.6241 13.2231Z" fill="white"/>
</svg>
