<svg width="22" height="23" viewBox="0 0 22 23" fill="none" xmlns="http://www.w3.org/2000/svg">
<path d="M1 11.3067C1 14.0403 2.05357 16.6618 3.92893 18.5947C5.8043 20.5276 8.34784 21.6135 11 21.6135C13.6522 21.6135 16.1957 20.5276 18.0711 18.5947C19.9464 16.6618 21 14.0403 21 11.3067C21 8.57323 19.9464 5.95167 18.0711 4.01878C16.1957 2.08589 13.6522 1 11 1C8.34784 1 5.8043 2.08589 3.92893 4.01878C2.05357 5.95167 1 8.57323 1 11.3067Z" fill="#FFC260" stroke="#FFC260" stroke-width="1.125" stroke-miterlimit="10"/>
<path d="M10.9974 16.1162C10.9315 16.1162 10.867 16.1364 10.8122 16.1741C10.7574 16.2119 10.7147 16.2655 10.6894 16.3283C10.6642 16.3911 10.6576 16.4602 10.6705 16.5268C10.6833 16.5934 10.7151 16.6547 10.7617 16.7027C10.8083 16.7508 10.8677 16.7835 10.9324 16.7967C10.997 16.81 11.064 16.8032 11.125 16.7772C11.1859 16.7512 11.2379 16.7071 11.2746 16.6506C11.3112 16.5941 11.3307 16.5277 11.3307 16.4598C11.3307 16.3687 11.2956 16.2813 11.2331 16.2168C11.1706 16.1524 11.0858 16.1162 10.9974 16.1162Z" stroke="white" stroke-width="1.125" stroke-linecap="round" stroke-linejoin="round"/>
<path d="M8.33594 8.55849C8.33603 8.05463 8.47051 7.56049 8.72467 7.13008C8.97883 6.69967 9.34289 6.34955 9.77707 6.11799C10.2113 5.88643 10.6988 5.78234 11.1865 5.81709C11.6742 5.85185 12.1433 6.02411 12.5424 6.31505C12.9415 6.606 13.2554 7.00442 13.4497 7.46679C13.6439 7.92915 13.7112 8.43766 13.644 8.93674C13.5768 9.43582 13.3778 9.90626 13.0687 10.2966C12.7596 10.687 12.3524 10.9823 11.8915 11.1503C11.6314 11.2451 11.4063 11.4206 11.2471 11.6528C11.0879 11.885 11.0025 12.1623 11.0026 12.4467V13.3683" stroke="white" stroke-width="1.125" stroke-linecap="round" stroke-linejoin="round"/>
</svg>
